<svg width="24" height="24" viewBox="0 0 24 24" fill="none" xmlns="http://www.w3.org/2000/svg">
<path d="M9.43846 18.6385L3.20769 12.4077C3.06923 12.2692 3 12.1308 3 11.9231C3 11.7154 3.06923 11.5769 3.20769 11.4385L9.43846 5.20769C9.57692 5.06923 9.71538 5 9.92308 5C10.1308 5 10.2692 5.06923 10.4077 5.20769L11.3769 6.17692C11.6538 6.45385 11.6538 6.86923 11.3769 7.14615L8.60769 9.91538C8.4 10.1923 8.53846 10.5385 8.81538 10.5385H20.3077C20.7231 10.5385 21 10.8154 21 11.2308V12.6154C21 13.0308 20.7231 13.3077 20.3077 13.3077H8.81538C8.53846 13.3077 8.33077 13.6538 8.53846 13.9308L11.3077 16.7C11.5846 16.9769 11.5846 17.3923 11.3077 17.6692L10.3385 18.6385C10.2692 18.7769 10.1308 18.8462 9.92308 18.8462C9.71538 18.8462 9.57692 18.7769 9.43846 18.6385Z" fill="white"/>
</svg>
