<svg width="32" height="32" viewBox="0 0 32 32" fill="none" xmlns="http://www.w3.org/2000/svg">
<path d="M28.3781 11.0344L20.4437 9.88129L16.8968 2.69066C16.7999 2.49379 16.6406 2.33441 16.4437 2.23754C15.9499 1.99379 15.3499 2.19691 15.1031 2.69066L11.5562 9.88129L3.62181 11.0344C3.40306 11.0657 3.20306 11.1688 3.04994 11.325C2.86482 11.5153 2.76281 11.7713 2.76632 12.0367C2.76984 12.3022 2.87859 12.5554 3.06869 12.7407L8.80931 18.3375L7.45306 26.2407C7.42126 26.4245 7.4416 26.6136 7.51179 26.7865C7.58197 26.9593 7.69919 27.1091 7.85015 27.2187C8.00111 27.3284 8.17977 27.3935 8.36587 27.4068C8.55197 27.42 8.73807 27.3809 8.90306 27.2938L15.9999 23.5625L23.0968 27.2938C23.2906 27.3969 23.5156 27.4313 23.7312 27.3938C24.2749 27.3 24.6406 26.7844 24.5468 26.2407L23.1906 18.3375L28.9312 12.7407C29.0874 12.5875 29.1906 12.3875 29.2218 12.1688C29.3062 11.6219 28.9249 11.1157 28.3781 11.0344ZM20.7749 17.55L21.9031 24.1219L15.9999 21.0219L10.0968 24.125L11.2249 17.5532L6.44994 12.8969L13.0499 11.9375L15.9999 5.95941L18.9499 11.9375L25.5499 12.8969L20.7749 17.55Z" fill="#242D34" fill-opacity="0.5"/>
</svg>
