<svg width="32" height="32" viewBox="0 0 32 32" fill="none" xmlns="http://www.w3.org/2000/svg">
<path d="M30.375 0.375H1.625C0.933594 0.375 0.375 0.933594 0.375 1.625V30.375C0.375 31.0664 0.933594 31.625 1.625 31.625H30.375C31.0664 31.625 31.625 31.0664 31.625 30.375V1.625C31.625 0.933594 31.0664 0.375 30.375 0.375ZM23.168 10.2852L14.9414 21.6914C14.8264 21.8519 14.6748 21.9827 14.4992 22.0729C14.3236 22.1631 14.1291 22.2101 13.9316 22.2101C13.7342 22.2101 13.5396 22.1631 13.364 22.0729C13.1884 21.9827 13.0369 21.8519 12.9219 21.6914L8.05078 14.9414C7.90234 14.7344 8.05078 14.4453 8.30469 14.4453H10.1367C10.5352 14.4453 10.9141 14.6367 11.1484 14.9648L13.9297 18.8242L20.0703 10.3086C20.3047 9.98437 20.6797 9.78906 21.082 9.78906H22.9141C23.168 9.78906 23.3164 10.0781 23.168 10.2852Z" fill="#67B800"/>
</svg>
