<svg width="66" height="24" viewBox="0 0 66 24" fill="none" xmlns="http://www.w3.org/2000/svg">
<path d="M39.8047 11.9219H35.1328V15.4219H40.5938V17H33.1562V5.625H40.5391V7.21875H35.1328V10.3594H39.8047V11.9219ZM47.0703 17C46.987 16.8385 46.9141 16.5755 46.8516 16.2109C46.2474 16.8411 45.5078 17.1562 44.6328 17.1562C43.7839 17.1562 43.0911 16.9141 42.5547 16.4297C42.0182 15.9453 41.75 15.3464 41.75 14.6328C41.75 13.7318 42.0833 13.0417 42.75 12.5625C43.4219 12.0781 44.3802 11.8359 45.625 11.8359H46.7891V11.2812C46.7891 10.8438 46.6667 10.4948 46.4219 10.2344C46.1771 9.96875 45.8047 9.83594 45.3047 9.83594C44.8724 9.83594 44.5182 9.94531 44.2422 10.1641C43.9661 10.3776 43.8281 10.651 43.8281 10.9844H41.9297C41.9297 10.5208 42.0833 10.0885 42.3906 9.6875C42.6979 9.28125 43.1146 8.96354 43.6406 8.73438C44.1719 8.50521 44.763 8.39062 45.4141 8.39062C46.4036 8.39062 47.1927 8.64062 47.7812 9.14062C48.3698 9.63542 48.6719 10.3333 48.6875 11.2344V15.0469C48.6875 15.8073 48.7943 16.4141 49.0078 16.8672V17H47.0703ZM44.9844 15.6328C45.3594 15.6328 45.7109 15.5417 46.0391 15.3594C46.3724 15.1771 46.6224 14.9323 46.7891 14.625V13.0312H45.7656C45.0625 13.0312 44.5339 13.1536 44.1797 13.3984C43.8255 13.6432 43.6484 13.9896 43.6484 14.4375C43.6484 14.8021 43.7682 15.0938 44.0078 15.3125C44.2526 15.526 44.5781 15.6328 44.9844 15.6328ZM55.4141 14.7031C55.4141 14.3646 55.2734 14.1068 54.9922 13.9297C54.7161 13.7526 54.2552 13.5964 53.6094 13.4609C52.9635 13.3255 52.4245 13.1536 51.9922 12.9453C51.0443 12.487 50.5703 11.8229 50.5703 10.9531C50.5703 10.224 50.8776 9.61458 51.4922 9.125C52.1068 8.63542 52.888 8.39062 53.8359 8.39062C54.8464 8.39062 55.6615 8.64062 56.2812 9.14062C56.9062 9.64062 57.2188 10.2891 57.2188 11.0859H55.3203C55.3203 10.7214 55.1849 10.4193 54.9141 10.1797C54.6432 9.9349 54.2839 9.8125 53.8359 9.8125C53.4193 9.8125 53.0781 9.90885 52.8125 10.1016C52.5521 10.2943 52.4219 10.5521 52.4219 10.875C52.4219 11.1667 52.5443 11.3932 52.7891 11.5547C53.0339 11.7161 53.5286 11.8802 54.2734 12.0469C55.0182 12.2083 55.6016 12.4036 56.0234 12.6328C56.4505 12.8568 56.7656 13.1276 56.9688 13.4453C57.1771 13.763 57.2812 14.1484 57.2812 14.6016C57.2812 15.362 56.9661 15.9792 56.3359 16.4531C55.7057 16.9219 54.8802 17.1562 53.8594 17.1562C53.1667 17.1562 52.5495 17.0312 52.0078 16.7812C51.4661 16.5312 51.0443 16.1875 50.7422 15.75C50.4401 15.3125 50.2891 14.8411 50.2891 14.3359H52.1328C52.1589 14.7839 52.3281 15.1302 52.6406 15.375C52.9531 15.6146 53.3672 15.7344 53.8828 15.7344C54.3828 15.7344 54.763 15.6406 55.0234 15.4531C55.2839 15.2604 55.4141 15.0104 55.4141 14.7031ZM61.8984 14.2812L63.6172 8.54688H65.6406L62.2812 18.2812C61.7656 19.7031 60.8906 20.4141 59.6562 20.4141C59.3802 20.4141 59.0755 20.3672 58.7422 20.2734V18.8047L59.1016 18.8281C59.5807 18.8281 59.9401 18.7396 60.1797 18.5625C60.4245 18.3906 60.6172 18.099 60.7578 17.6875L61.0312 16.9609L58.0625 8.54688H60.1094L61.8984 14.2812Z" fill="#212428" fill-opacity="0.5"/>
<path d="M23.9296 9.1257V6.65028C23.9296 5.73929 23.1903 5 22.2793 5H1.65028C0.738554 4.99991 0 5.73929 0 6.65028V18.2025C0 19.1143 0.739385 19.8528 1.65028 19.8528H22.2792C23.1902 19.8528 23.9295 19.1142 23.9295 18.2025V15.727L23.9296 9.1257ZM21.4541 16.5521C21.4541 17.0084 21.0852 17.3773 20.6289 17.3773H3.30065C2.8452 17.3773 2.47551 17.0084 2.47551 16.5521V8.30056C2.47551 7.84511 2.8452 7.47542 3.30065 7.47542H20.6289C21.0852 7.47542 21.4541 7.84511 21.4541 8.30056V16.5521Z" fill="#CCD0D2"/>
<path fill-rule="evenodd" clip-rule="evenodd" d="M7.17486 9C6.71858 9 4.82514 9 4.82514 9C4.36969 9 4 9.36969 4 9.82514V14.7761C4 15.2323 4.36969 15.6012 4.82514 15.6012C4.82514 15.6012 6.71858 15.6012 7.17486 15.6012C7.63114 15.6012 8 15.2323 8 14.7761C8 14.3198 8 10.2798 8 9.82514C8 9.37052 7.63114 9 7.17486 9Z" fill="#CCD0D2"/>
</svg>
