<svg width="67" height="24" viewBox="0 0 67 24" fill="none" xmlns="http://www.w3.org/2000/svg">
<path d="M42.1875 17H40.2188V11.9453H35.1328V17H33.1562V5.625H35.1328V10.3594H40.2188V5.625H42.1875V17ZM49.3984 17C49.3151 16.8385 49.2422 16.5755 49.1797 16.2109C48.5755 16.8411 47.8359 17.1562 46.9609 17.1562C46.112 17.1562 45.4193 16.9141 44.8828 16.4297C44.3464 15.9453 44.0781 15.3464 44.0781 14.6328C44.0781 13.7318 44.4115 13.0417 45.0781 12.5625C45.75 12.0781 46.7083 11.8359 47.9531 11.8359H49.1172V11.2812C49.1172 10.8438 48.9948 10.4948 48.75 10.2344C48.5052 9.96875 48.1328 9.83594 47.6328 9.83594C47.2005 9.83594 46.8464 9.94531 46.5703 10.1641C46.2943 10.3776 46.1562 10.651 46.1562 10.9844H44.2578C44.2578 10.5208 44.4115 10.0885 44.7188 9.6875C45.026 9.28125 45.4427 8.96354 45.9688 8.73438C46.5 8.50521 47.0911 8.39062 47.7422 8.39062C48.7318 8.39062 49.5208 8.64062 50.1094 9.14062C50.6979 9.63542 51 10.3333 51.0156 11.2344V15.0469C51.0156 15.8073 51.1224 16.4141 51.3359 16.8672V17H49.3984ZM47.3125 15.6328C47.6875 15.6328 48.0391 15.5417 48.3672 15.3594C48.7005 15.1771 48.9505 14.9323 49.1172 14.625V13.0312H48.0938C47.3906 13.0312 46.862 13.1536 46.5078 13.3984C46.1536 13.6432 45.9766 13.9896 45.9766 14.4375C45.9766 14.8021 46.0964 15.0938 46.3359 15.3125C46.5807 15.526 46.9062 15.6328 47.3125 15.6328ZM57.4297 10.2812C57.1797 10.2396 56.9219 10.2188 56.6562 10.2188C55.7865 10.2188 55.2005 10.5521 54.8984 11.2188V17H53V8.54688H54.8125L54.8594 9.49219C55.3177 8.75781 55.9531 8.39062 56.7656 8.39062C57.0365 8.39062 57.2604 8.42708 57.4375 8.5L57.4297 10.2812ZM58.1172 12.7109C58.1172 11.4089 58.4193 10.3646 59.0234 9.57812C59.6276 8.78646 60.4375 8.39062 61.4531 8.39062C62.349 8.39062 63.0729 8.70312 63.625 9.32812V5H65.5234V17H63.8047L63.7109 16.125C63.1432 16.8125 62.3854 17.1562 61.4375 17.1562C60.4479 17.1562 59.6458 16.7578 59.0312 15.9609C58.4219 15.1641 58.1172 14.0807 58.1172 12.7109ZM60.0156 12.875C60.0156 13.7344 60.1797 14.4062 60.5078 14.8906C60.8411 15.3698 61.3125 15.6094 61.9219 15.6094C62.6979 15.6094 63.2656 15.263 63.625 14.5703V10.9609C63.276 10.2839 62.7135 9.94531 61.9375 9.94531C61.3229 9.94531 60.849 10.1901 60.5156 10.6797C60.1823 11.1641 60.0156 11.8958 60.0156 12.875Z" fill="#212428" fill-opacity="0.5"/>
<path d="M23.9296 9.1257V6.65028C23.9296 5.73929 23.1903 5 22.2793 5H1.65028C0.738554 4.99991 0 5.73929 0 6.65028V18.2025C0 19.1143 0.739385 19.8528 1.65028 19.8528H22.2792C23.1902 19.8528 23.9295 19.1142 23.9295 18.2025V15.727L23.9296 9.1257ZM21.4541 16.5521C21.4541 17.0084 21.0852 17.3773 20.6289 17.3773H3.30065C2.8452 17.3773 2.47551 17.0084 2.47551 16.5521V8.30056C2.47551 7.84511 2.8452 7.47542 3.30065 7.47542H20.6289C21.0852 7.47542 21.4541 7.84511 21.4541 8.30056V16.5521Z" fill="#CCD0D2"/>
<path fill-rule="evenodd" clip-rule="evenodd" d="M19.1749 9C18.7186 9 16.8251 9 16.8251 9C16.3697 9 16 9.36969 16 9.82514V14.7761C16 15.2323 16.3697 15.6012 16.8251 15.6012C16.8251 15.6012 18.7186 15.6012 19.1749 15.6012C19.6311 15.6012 20 15.2323 20 14.7761C20 14.3198 20 10.2798 20 9.82514C20 9.37052 19.6311 9 19.1749 9Z" fill="#CCD0D2"/>
<path fill-rule="evenodd" clip-rule="evenodd" d="M13.1749 9C12.7186 9 10.8251 9 10.8251 9C10.3697 9 10 9.36969 10 9.82514V14.7761C10 15.2323 10.3697 15.6012 10.8251 15.6012C10.8251 15.6012 12.7186 15.6012 13.1749 15.6012C13.6311 15.6012 14 15.2323 14 14.7761C14 14.3198 14 10.2798 14 9.82514C14 9.37052 13.6311 9 13.1749 9Z" fill="#CCD0D2"/>
<path fill-rule="evenodd" clip-rule="evenodd" d="M7.17486 9C6.71858 9 4.82514 9 4.82514 9C4.36969 9 4 9.36969 4 9.82514V14.7761C4 15.2323 4.36969 15.6012 4.82514 15.6012C4.82514 15.6012 6.71858 15.6012 7.17486 15.6012C7.63114 15.6012 8 15.2323 8 14.7761C8 14.3198 8 10.2798 8 9.82514C8 9.37052 7.63114 9 7.17486 9Z" fill="#CCD0D2"/>
</svg>
