<svg width="240" height="64" viewBox="0 0 240 64" fill="none" xmlns="http://www.w3.org/2000/svg">
<path d="M72.7814 37.2582C72.7814 38.4777 73.1142 39.4144 73.7797 40.0684C74.4453 40.7224 75.304 41.0494 76.3559 41.0494C76.7586 41.0526 77.1589 40.9855 77.5389 40.8511C77.8904 40.7279 78.2157 40.539 78.4979 40.2943C78.7815 40.0464 79.0075 39.7385 79.1597 39.3926C79.3118 39.0466 79.3865 38.671 79.3783 38.2926C79.3933 37.8774 79.2983 37.4655 79.1031 37.0996C78.9223 36.7852 78.6811 36.5103 78.3936 36.291C78.101 36.0681 77.7831 35.8812 77.4466 35.7342C77.1047 35.5836 76.7759 35.4554 76.4602 35.3497C75.6191 35.0497 74.8305 34.7446 74.0943 34.4342C73.404 34.1514 72.7544 33.7769 72.1626 33.3205C71.619 32.8977 71.1748 32.359 70.8616 31.743C70.546 31.1246 70.3881 30.3471 70.3881 29.4104C70.3793 28.6901 70.5368 27.9777 70.848 27.3294C71.1474 26.7117 71.5678 26.1616 72.0839 25.7123C72.6165 25.2524 73.2324 24.9011 73.8977 24.6779C74.6046 24.4366 75.3464 24.3154 76.0927 24.3193C76.8837 24.3134 77.6688 24.4573 78.4073 24.7434C79.1023 25.0113 79.737 25.417 80.2741 25.9364C80.8043 26.4557 81.2248 27.0779 81.51 27.7656C81.8162 28.5137 81.9685 29.3166 81.9579 30.1258H78.9338C78.9338 29.2064 78.6882 28.4639 78.197 27.8984C77.7058 27.3329 77.0312 27.0501 76.173 27.0501C75.4797 27.0318 74.7985 27.2358 74.2276 27.6329C73.684 28.0214 73.4122 28.6139 73.4122 29.4104C73.4061 29.7553 73.483 30.0966 73.6361 30.4051C73.7845 30.6959 73.9905 30.9529 74.2413 31.1603C74.5041 31.3783 74.7909 31.5651 75.096 31.7171C75.4195 31.8799 75.753 32.0215 76.0944 32.1412C76.8135 32.4068 77.5452 32.6895 78.2893 32.9895C79.0103 33.2773 79.6944 33.6512 80.3271 34.1032C80.9255 34.5292 81.4349 35.07 81.8263 35.6945C82.2254 36.3755 82.4235 37.1572 82.3972 37.9478C82.4151 38.8141 82.2447 39.6739 81.8981 40.4667C81.5808 41.1702 81.1139 41.7947 80.5305 42.2959C79.9396 42.7979 79.2557 43.1765 78.5184 43.4096C77.735 43.6632 76.9171 43.7917 76.0944 43.7906C75.2728 43.794 74.4576 43.6456 73.6891 43.3527C72.939 43.0659 72.2544 42.6283 71.6771 42.0666C71.0825 41.4865 70.6089 40.7925 70.2838 40.0253C69.9188 39.1489 69.7395 38.2052 69.7573 37.2548L72.7814 37.2582Z" fill="#333333"/>
<path d="M96.8527 30.9743V43.3305H93.9859V41.6599C93.5854 42.2923 93.0159 42.7979 92.3431 43.1184C91.6797 43.4607 90.9463 43.6425 90.2011 43.6494C89.3243 43.6601 88.4551 43.4839 87.6506 43.1322C86.8995 42.8045 86.2234 42.3244 85.6641 41.7219C85.1105 41.1193 84.6734 40.4176 84.3752 39.6531C83.7621 38.0534 83.7621 36.2807 84.3752 34.6809C84.6698 33.9063 85.1071 33.195 85.6641 32.5845C86.2221 31.9792 86.8977 31.4962 87.6488 31.1656C88.4534 30.814 89.3226 30.6377 90.1994 30.6484C90.9446 30.6553 91.6779 30.8371 92.3414 31.1794C93.014 31.5003 93.5834 32.0057 93.9842 32.638V30.9674L96.8527 30.9743ZM90.3567 41.0771C90.8692 41.0836 91.3767 40.9747 91.8422 40.7582C92.2762 40.556 92.6652 40.2675 92.9859 39.91C93.308 39.5457 93.5581 39.1226 93.7227 38.6635C94.0733 37.6871 94.0733 36.6176 93.7227 35.6412C93.558 35.1822 93.3079 34.7591 92.9859 34.3948C92.665 34.0374 92.276 33.7489 91.8422 33.5465C91.3767 33.3301 90.8692 33.2212 90.3567 33.2276C89.8484 33.2202 89.3452 33.3293 88.8848 33.5465C88.4523 33.7524 88.0654 34.0439 87.747 34.4038C87.4287 34.7637 87.1854 35.1845 87.0317 35.6412C86.6984 36.6206 86.6984 37.6841 87.0317 38.6635C87.1861 39.1213 87.4305 39.543 87.7504 39.9033C88.0703 40.2635 88.4591 40.5549 88.8934 40.7599C89.3518 40.9756 89.8526 41.0841 90.3584 41.0771H90.3567Z" fill="#333333"/>
<path d="M106.575 43.3322C106.347 43.3679 106.04 43.4035 105.655 43.4391C105.27 43.4747 104.867 43.4926 104.446 43.4926C104.041 43.4884 103.637 43.4573 103.236 43.3995C102.768 43.3326 102.322 43.1554 101.935 42.8822C101.482 42.5486 101.124 42.1002 100.897 41.5823C100.617 40.9984 100.477 40.1853 100.477 39.1428V33.3879H98.3981V30.9743H100.475V27.24H103.34V30.9794H106.159V33.3931H103.34V38.467C103.33 38.8931 103.369 39.3191 103.458 39.7359C103.513 40.0051 103.635 40.2557 103.814 40.4634C103.966 40.6277 104.163 40.7429 104.38 40.7944C104.627 40.846 104.88 40.868 105.133 40.8599H105.922C106.144 40.8703 106.366 40.8435 106.58 40.7806L106.575 43.3322Z" fill="#333333"/>
<path d="M119.22 30.9741V43.3303H116.353V41.6063C115.981 42.2644 115.423 42.7952 114.749 43.1303C114.003 43.4891 113.183 43.6662 112.356 43.6476C111.582 43.6728 110.813 43.5189 110.108 43.1976C109.534 42.9229 109.04 42.5022 108.675 41.977C108.374 41.5089 108.165 40.9868 108.058 40.4391C107.933 39.7396 107.876 39.0293 107.887 38.3185V30.9741H110.752V37.3651C110.75 37.863 110.794 38.3601 110.884 38.8495C110.956 39.2662 111.103 39.6659 111.318 40.0288C111.519 40.356 111.8 40.6255 112.134 40.8115C112.527 41.0181 112.966 41.1185 113.409 41.1029C114.408 41.1029 115.149 40.7448 115.631 40.0288C116.113 39.3127 116.354 38.4243 116.354 37.3634V30.9741H119.22Z" fill="#333333"/>
<path d="M129.941 33.6534C129.755 33.6078 129.566 33.5721 129.376 33.5465C129.188 33.5272 128.999 33.5186 128.81 33.5206C127.582 33.5206 126.644 33.8786 125.996 34.5947C125.348 35.3108 125.023 36.4463 125.023 38.0014V43.3322H122.158V30.9742H125.023V32.9638C125.176 32.6638 125.376 32.3908 125.615 32.1552C125.883 31.8882 126.183 31.6565 126.509 31.4656C126.856 31.2602 127.227 31.0998 127.613 30.988C128.002 30.8739 128.405 30.8159 128.81 30.8156C129.195 30.8038 129.578 30.8671 129.94 31.0018L129.941 33.6534Z" fill="#333333"/>
<path d="M140.54 41.6615C140.14 42.2939 139.57 42.7995 138.897 43.12C138.235 43.4612 137.503 43.6424 136.759 43.6493C135.882 43.66 135.013 43.4838 134.208 43.1321C133.456 42.8048 132.779 42.3247 132.218 41.7218C131.665 41.1192 131.228 40.4175 130.93 39.653C130.316 38.0532 130.316 36.2805 130.93 34.6808C131.224 33.9062 131.661 33.1949 132.218 32.5844C132.775 31.9831 133.447 31.5032 134.195 31.1741C134.999 30.8224 135.868 30.6462 136.745 30.6569C137.49 30.6638 138.224 30.8456 138.887 31.1879C139.56 31.5087 140.129 32.0142 140.53 32.6464V24.7693H143.395V43.3321H140.54V41.6615ZM136.911 41.0788C137.424 41.0852 137.931 40.9763 138.397 40.7598C138.831 40.5576 139.22 40.2691 139.54 39.9116C139.862 39.5473 140.112 39.1242 140.277 38.6651C140.628 37.6887 140.628 36.6192 140.277 35.6428C140.112 35.1838 139.862 34.7607 139.54 34.3964C139.219 34.039 138.83 33.7505 138.397 33.5481C137.931 33.3317 137.424 33.2228 136.911 33.2292C136.403 33.2218 135.9 33.3309 135.439 33.5481C135.007 33.754 134.62 34.0455 134.301 34.4054C133.983 34.7653 133.74 35.1861 133.586 35.6428C133.253 36.6222 133.253 37.6857 133.586 38.6651C133.74 39.1219 133.983 39.5427 134.301 39.9026C134.62 40.2625 135.007 40.554 135.439 40.7598C135.9 40.9765 136.403 41.085 136.911 41.077V41.0788Z" fill="#333333"/>
<path d="M158.495 30.9743V43.3305H155.628V41.6599C155.228 42.2923 154.658 42.7979 153.985 43.1184C153.322 43.4607 152.589 43.6425 151.843 43.6494C150.967 43.6601 150.097 43.4839 149.293 43.1322C148.542 42.8045 147.866 42.3244 147.306 41.7219C146.753 41.1193 146.316 40.4176 146.017 39.6531C145.404 38.0534 145.404 36.2807 146.017 34.6809C146.312 33.9063 146.749 33.195 147.306 32.5845C147.864 31.9792 148.54 31.4962 149.291 31.1656C150.096 30.814 150.965 30.6377 151.842 30.6484C152.587 30.6553 153.32 30.8371 153.984 31.1794C154.656 31.5003 155.226 32.0057 155.626 32.638V30.9674L158.495 30.9743ZM151.999 41.0771C152.511 41.0836 153.019 40.9747 153.484 40.7582C153.918 40.556 154.307 40.2675 154.628 39.91C154.95 39.5457 155.2 39.1226 155.365 38.6635C155.715 37.6871 155.715 36.6176 155.365 35.6412C155.2 35.1822 154.95 34.7591 154.628 34.3948C154.307 34.0374 153.918 33.7489 153.484 33.5465C153.019 33.3301 152.511 33.2212 151.999 33.2276C151.491 33.2202 150.987 33.3293 150.527 33.5465C150.095 33.7524 149.708 34.0439 149.389 34.4038C149.071 34.7637 148.828 35.1845 148.674 35.6412C148.341 36.6206 148.341 37.6841 148.674 38.6635C148.828 39.1202 149.071 39.5411 149.389 39.901C149.708 40.2609 150.094 40.5524 150.527 40.7582C150.988 40.9758 151.492 41.0848 152.001 41.0771H151.999Z" fill="#333333"/>
<path d="M166.846 49.7748C166.076 49.7823 165.31 49.6748 164.572 49.4559C163.914 49.2621 163.302 48.9373 162.77 48.5008C162.255 48.0675 161.842 47.5239 161.562 46.9095C161.249 46.2091 161.088 45.4499 161.088 44.682H163.974C164.043 45.5831 164.355 46.2503 164.907 46.6836C165.467 47.1196 166.159 47.349 166.866 47.3336C167.273 47.3368 167.679 47.2923 168.075 47.2008C168.424 47.1217 168.75 46.9578 169.022 46.7233C169.296 46.4767 169.508 46.1675 169.639 45.8216C169.803 45.3626 169.879 44.8764 169.863 44.3889V41.5494C169.491 42.2075 168.933 42.7383 168.26 43.0735C167.513 43.4323 166.693 43.6095 165.866 43.5907C165.093 43.616 164.324 43.462 163.618 43.1407C163.044 42.8665 162.55 42.4465 162.186 41.9218C161.884 41.4538 161.675 40.9317 161.569 40.384C161.443 39.6844 161.386 38.9742 161.398 38.2634V30.9189H164.263V37.31C164.26 37.8079 164.304 38.3049 164.394 38.7944C164.466 39.211 164.613 39.6107 164.829 39.9736C165.029 40.3008 165.31 40.5703 165.644 40.7563C166.037 40.963 166.476 41.0634 166.919 41.0477C167.919 41.0477 168.66 40.6897 169.142 39.9736C169.624 39.2576 169.865 38.3691 169.865 37.3083V30.9207H172.73V44.3906C172.73 46.194 172.222 47.5554 171.205 48.4749C170.206 49.3748 168.752 49.8248 166.846 49.8248V49.7748Z" fill="#333333"/>
<path d="M185.587 35.1912V43.3321H182.563V24.7693H185.587V32.9293L192.425 24.7625H196.211L188.428 34.043L196.211 43.3235H192.425L185.587 35.1912Z" fill="#333333"/>
<path d="M197.138 26.4675C197.132 26.1843 197.184 25.903 197.29 25.6409C197.396 25.3787 197.554 25.1413 197.755 24.9434C197.947 24.7428 198.178 24.5842 198.434 24.4771C198.689 24.3701 198.964 24.317 199.241 24.321C199.522 24.3173 199.8 24.3703 200.061 24.4767C200.321 24.5832 200.558 24.741 200.757 24.9409C200.956 25.1409 201.113 25.3789 201.22 25.641C201.326 25.9032 201.38 26.1841 201.377 26.4675C201.381 26.7464 201.329 27.0233 201.223 27.281C201.117 27.5386 200.959 27.7717 200.76 27.9656C200.564 28.1682 200.329 28.3279 200.069 28.435C199.809 28.542 199.53 28.5941 199.249 28.588C198.692 28.5862 198.158 28.3622 197.764 27.9649C197.37 27.5676 197.148 27.0293 197.146 26.4675H197.138ZM197.822 30.9758H200.694V43.3321H197.829L197.822 30.9758Z" fill="#333333"/>
<path d="M212.81 41.6615C212.41 42.2939 211.84 42.7995 211.168 43.12C210.504 43.4623 209.771 43.6441 209.026 43.651C208.149 43.6617 207.28 43.4855 206.475 43.1338C205.724 42.8056 205.048 42.325 204.489 41.7218C203.935 41.1192 203.498 40.4175 203.2 39.653C202.587 38.0532 202.587 36.2805 203.2 34.6808C203.494 33.9062 203.932 33.1949 204.489 32.5844C205.047 31.979 205.722 31.496 206.473 31.1655C207.278 30.8138 208.147 30.6376 209.024 30.6483C209.769 30.6552 210.503 30.837 211.166 31.1793C211.839 31.5001 212.408 32.0056 212.809 32.6378V24.7693H215.674V43.3321H212.809L212.81 41.6615ZM209.181 41.0788C209.694 41.0852 210.201 40.9763 210.667 40.7598C211.101 40.5576 211.49 40.2691 211.81 39.9116C212.133 39.5473 212.383 39.1242 212.547 38.6651C212.898 37.6887 212.898 36.6192 212.547 35.6428C212.383 35.1838 212.132 34.7607 211.81 34.3964C211.49 34.039 211.101 33.7505 210.667 33.5481C210.201 33.3317 209.694 33.2228 209.181 33.2292C208.673 33.2218 208.17 33.3309 207.709 33.5481C207.277 33.754 206.89 34.0455 206.572 34.4054C206.253 34.7653 206.01 35.1861 205.856 35.6428C205.523 36.6222 205.523 37.6857 205.856 38.6651C206.009 39.1212 206.251 39.5417 206.568 39.9016C206.886 40.2614 207.271 40.5533 207.703 40.7598C208.165 40.9775 208.671 41.086 209.181 41.077V41.0788Z" fill="#333333"/>
<path d="M224.011 36.3583C224.432 36.5169 224.844 36.6847 225.247 36.8617C225.636 37.03 225.999 37.2535 226.326 37.5255C226.639 37.7875 226.894 38.1129 227.075 38.4806C227.273 38.9211 227.368 39.402 227.351 39.8857C227.364 40.4659 227.233 41.0402 226.97 41.5563C226.72 42.0294 226.359 42.434 225.919 42.7355C225.443 43.0581 224.913 43.2917 224.355 43.4252C223.735 43.5782 223.1 43.654 222.462 43.651C221.82 43.6547 221.182 43.5564 220.57 43.3596C219.991 43.1748 219.451 42.8824 218.978 42.4976C218.513 42.1163 218.136 41.6367 217.874 41.0925C217.593 40.4921 217.454 39.8341 217.467 39.1702H220.254C220.254 39.984 220.477 40.554 220.924 40.8805C221.422 41.2235 222.017 41.3958 222.62 41.3718C223.112 41.3875 223.601 41.2778 224.04 41.0529C224.425 40.8402 224.618 40.469 224.618 39.9391C224.629 39.6874 224.545 39.4408 224.382 39.2495C224.179 39.0409 223.938 38.874 223.673 38.7582C223.288 38.5806 222.893 38.4258 222.49 38.2944C222.017 38.1358 221.456 37.9323 220.808 37.6841C220.408 37.5344 220.018 37.3617 219.638 37.1669C219.299 36.9952 218.984 36.7764 218.705 36.5169C218.435 36.259 218.228 35.9415 218.1 35.5894C217.949 35.1553 217.878 34.6974 217.889 34.2377C217.878 33.7016 218.004 33.1717 218.257 32.6999C218.504 32.2552 218.845 31.8704 219.255 31.5723C219.696 31.2537 220.191 31.0199 220.715 30.8827C221.294 30.729 221.891 30.653 222.49 30.6569C223.113 30.6527 223.732 30.7607 224.317 30.9758C224.861 31.1733 225.365 31.4702 225.803 31.8516C226.221 32.2208 226.561 32.6719 226.801 33.1774C227.048 33.6988 227.174 34.2702 227.169 34.848H224.382C224.408 34.3424 224.244 33.8454 223.922 33.4567C223.616 33.1119 223.112 32.9395 222.411 32.9395C221.97 32.9255 221.534 33.0456 221.161 33.2843C220.996 33.3922 220.862 33.5419 220.772 33.7186C220.682 33.8953 220.639 34.0927 220.649 34.2912C220.638 34.5263 220.713 34.7573 220.859 34.9411C221.035 35.1351 221.25 35.2885 221.49 35.3911C221.77 35.5233 222.12 35.6647 222.541 35.8152C222.962 35.9658 223.452 36.1468 224.011 36.3583Z" fill="#333333"/>
<path d="M46.9595 24.2746C49.9637 24.2746 52.3991 21.8184 52.3991 18.7886C52.3991 15.7589 49.9637 13.3027 46.9595 13.3027C43.9553 13.3027 41.5199 15.7589 41.5199 18.7886C41.5199 21.8184 43.9553 24.2746 46.9595 24.2746Z" fill="#333333"/>
<path d="M24.4747 37.6893C21.3384 37.6893 18.3306 36.4328 16.1129 34.1963C13.8952 31.9597 12.6493 28.9262 12.6493 25.7632C12.6493 22.6002 13.8952 19.5668 16.1129 17.3302C18.3306 15.0937 21.3384 13.8372 24.4747 13.8372V37.6893Z" fill="#333333"/>
<path d="M26.9517 50.6954C30.0879 50.6954 33.0958 49.4389 35.3134 47.2023C37.5311 44.9658 38.777 41.9323 38.777 38.7693C38.777 35.6063 37.5311 32.5729 35.3134 30.3363C33.0958 28.0998 30.0879 26.8433 26.9517 26.8433V50.6954Z" fill="#333333"/>
<path d="M32.8648 23.2039C35.5754 23.2039 37.7728 20.9878 37.7728 18.2542C37.7728 15.5205 35.5754 13.3044 32.8648 13.3044C30.1543 13.3044 27.9569 15.5205 27.9569 18.2542C27.9569 20.9878 30.1543 23.2039 32.8648 23.2039Z" fill="#333333"/>
<path d="M18.088 50.6974C21.0922 50.6974 23.5276 48.2413 23.5276 45.2115C23.5276 42.1817 21.0922 39.7256 18.088 39.7256C15.0838 39.7256 12.6484 42.1817 12.6484 45.2115C12.6484 48.2413 15.0838 50.6974 18.088 50.6974Z" fill="#333333"/>
<path d="M43.0927 29.2898V50.6955H64.3194L43.0927 29.2898Z" fill="#333333"/>
</svg>
