<svg width="210" height="56" viewBox="0 0 210 56" fill="none" xmlns="http://www.w3.org/2000/svg">
<g clip-path="url(#clip0)">
<path d="M210 0H0V56H210V0Z" fill="#FCD751"/>
<path d="M63.6837 32.601C63.6837 33.6681 63.9749 34.4877 64.5573 35.0599C65.1397 35.6322 65.891 35.9183 66.8115 35.9183C67.1638 35.9211 67.514 35.8624 67.8466 35.7448C68.1541 35.637 68.4388 35.4717 68.6857 35.2576C68.9339 35.0407 69.1316 34.7713 69.2647 34.4686C69.3979 34.1659 69.4632 33.8372 69.456 33.5061C69.4692 33.1428 69.3861 32.7824 69.2152 32.4622C69.057 32.1871 68.846 31.9466 68.5945 31.7547C68.3384 31.5597 68.0602 31.3961 67.7658 31.2675C67.4666 31.1357 67.1789 31.0236 66.9027 30.9311C66.1668 30.6686 65.4767 30.4016 64.8325 30.13C64.2286 29.8826 63.6601 29.5548 63.1423 29.1555C62.6667 28.7856 62.278 28.3142 62.004 27.7752C61.7277 27.2341 61.5896 26.5538 61.5896 25.7342C61.5819 25.104 61.7197 24.4806 61.992 23.9134C62.254 23.3729 62.6219 22.8915 63.0735 22.4983C63.5394 22.0959 64.0784 21.7886 64.6605 21.5932C65.2791 21.3821 65.9281 21.2761 66.5811 21.2794C67.2733 21.2743 67.9603 21.4002 68.6064 21.6505C69.2146 21.885 69.7699 22.24 70.2398 22.6945C70.7038 23.1488 71.0717 23.6933 71.3213 24.295C71.5892 24.9496 71.7225 25.6522 71.7132 26.3602H69.0671C69.0671 25.5557 68.8522 24.906 68.4224 24.4112C67.9926 23.9164 67.4023 23.669 66.6514 23.669C66.0448 23.6529 65.4488 23.8314 64.9492 24.1789C64.4735 24.5188 64.2357 25.0372 64.2357 25.7342C64.2304 26.036 64.2976 26.3346 64.4316 26.6046C64.5615 26.859 64.7417 27.0839 64.9612 27.2653C65.1911 27.4561 65.4421 27.6196 65.7091 27.7526C65.9921 27.895 66.2839 28.0189 66.5826 28.1237C67.2118 28.356 67.852 28.6034 68.5032 28.8659C69.134 29.1177 69.7326 29.4449 70.2862 29.8404C70.8099 30.2132 71.2556 30.6863 71.598 31.2328C71.9473 31.8286 72.1206 32.5127 72.0976 33.2044C72.1133 33.9624 71.9642 34.7147 71.6608 35.4084C71.3832 36.024 70.9747 36.5705 70.4642 37.009C69.9472 37.4483 69.3487 37.7795 68.7036 37.9835C68.0182 38.2054 67.3025 38.3179 66.5826 38.3169C65.8638 38.3199 65.1504 38.19 64.478 37.9337C63.8216 37.6827 63.2227 37.2999 62.7175 36.8083C62.1972 36.3008 61.7828 35.6935 61.4984 35.0222C61.179 34.2554 61.0221 33.4296 61.0377 32.598L63.6837 32.601Z" fill="#333333"/>
<path d="M84.7462 27.1024V37.9141H82.2377V36.4523C81.8872 37.0057 81.389 37.4481 80.8003 37.7286C80.2197 38.0281 79.5781 38.1871 78.926 38.1932C78.1588 38.2026 77.3983 38.0483 76.6943 37.7406C76.0371 37.4539 75.4455 37.0338 74.9562 36.5066C74.4718 35.9793 74.0893 35.3654 73.8283 34.6964C73.2919 33.2966 73.2919 31.7455 73.8283 30.3458C74.0861 29.668 74.4688 29.0456 74.9562 28.5114C75.4444 27.9817 76.0356 27.5591 76.6928 27.2699C77.3968 26.9621 78.1573 26.8079 78.9245 26.8173C79.5766 26.8234 80.2182 26.9824 80.7988 27.2819C81.3873 27.5627 81.8855 28.005 82.2362 28.5581V27.0964L84.7462 27.1024ZM79.0621 35.9424C79.5106 35.9481 79.9547 35.8528 80.362 35.6634C80.7417 35.4864 81.0821 35.234 81.3627 34.9212C81.6446 34.6024 81.8634 34.2322 82.0074 33.8305C82.3142 32.9762 82.3142 32.0404 82.0074 31.186C81.8633 30.7844 81.6445 30.4142 81.3627 30.0954C81.0819 29.7827 80.7416 29.5303 80.362 29.3532C79.9547 29.1638 79.5106 29.0685 79.0621 29.0741C78.6174 29.0676 78.1771 29.1631 77.7743 29.3532C77.3958 29.5333 77.0573 29.7884 76.7787 30.1033C76.5001 30.4182 76.2873 30.7864 76.1528 31.186C75.8612 32.043 75.8612 32.9735 76.1528 33.8305C76.2879 34.2311 76.5018 34.6001 76.7817 34.9153C77.0616 35.2305 77.4017 35.4855 77.7817 35.6649C78.1828 35.8536 78.6211 35.9485 79.0636 35.9424H79.0621Z" fill="#333333"/>
<path d="M93.2528 37.9157C93.0534 37.9468 92.7851 37.978 92.4481 38.0092C92.111 38.0404 91.7585 38.056 91.3905 38.056C91.0361 38.0523 90.6824 38.0251 90.3315 37.9745C89.9221 37.916 89.5321 37.761 89.1932 37.5219C88.7966 37.23 88.4834 36.8376 88.2852 36.3845C88.0399 35.8736 87.9173 35.1621 87.9173 34.2499V29.2144H86.0984V27.1025H87.9158V23.835H90.4228V27.107H92.8893V29.2189H90.4228V33.6586C90.4135 34.0315 90.4482 34.4042 90.526 34.7689C90.5738 35.0045 90.6809 35.2237 90.8371 35.4055C90.9701 35.5492 91.1424 35.65 91.3322 35.6951C91.5491 35.7403 91.7705 35.7595 91.9918 35.7524H92.6814C92.8758 35.7615 93.0704 35.7381 93.2573 35.683L93.2528 37.9157Z" fill="#333333"/>
<path d="M104.317 27.1024V37.9141H101.809V36.4056C101.483 36.9814 100.995 37.4458 100.406 37.7391C99.7523 38.053 99.035 38.208 98.3115 38.1917C97.6346 38.2138 96.9617 38.0791 96.3445 37.7979C95.8419 37.5576 95.4099 37.1895 95.091 36.7299C94.8273 36.3203 94.644 35.8635 94.551 35.3843C94.4413 34.7722 94.3912 34.1507 94.4015 33.5288V27.1024H96.9084V32.6946C96.9058 33.1302 96.9444 33.5651 97.0236 33.9934C97.0864 34.3579 97.2152 34.7077 97.4035 35.0253C97.5791 35.3115 97.8249 35.5474 98.117 35.7101C98.4609 35.8909 98.8453 35.9788 99.2329 35.9651C100.107 35.9651 100.756 35.6518 101.177 35.0253C101.599 34.3987 101.81 33.6213 101.81 32.6931V27.1024H104.317Z" fill="#333333"/>
<path d="M113.699 29.4467C113.535 29.4068 113.37 29.3756 113.204 29.3531C113.039 29.3363 112.874 29.3287 112.709 29.3305C111.635 29.3305 110.814 29.6438 110.246 30.2703C109.679 30.8969 109.395 31.8905 109.395 33.2512V37.9156H106.888V27.1024H109.395V28.8433C109.529 28.5808 109.704 28.3419 109.913 28.1357C110.147 27.9021 110.41 27.6994 110.695 27.5323C110.999 27.3527 111.323 27.2123 111.662 27.1145C112.002 27.0147 112.354 26.9639 112.709 26.9636C113.045 26.9533 113.381 27.0086 113.697 27.1265L113.699 29.4467Z" fill="#333333"/>
<path d="M122.973 36.4539C122.622 37.0073 122.124 37.4497 121.535 37.7301C120.956 38.0286 120.315 38.1872 119.664 38.1932C118.897 38.2026 118.136 38.0484 117.432 37.7407C116.774 37.4543 116.181 37.0342 115.691 36.5067C115.207 35.9793 114.824 35.3654 114.563 34.6964C114.027 33.2967 114.027 31.7456 114.563 30.3458C114.821 29.668 115.204 29.0456 115.691 28.5114C116.178 27.9853 116.767 27.5653 117.42 27.2774C118.124 26.9697 118.885 26.8155 119.652 26.8249C120.304 26.8309 120.946 26.99 121.526 27.2895C122.115 27.5702 122.613 28.0126 122.964 28.5657V21.6732H125.471V37.9157H122.973V36.4539ZM119.797 35.944C120.246 35.9497 120.69 35.8543 121.097 35.6649C121.477 35.488 121.817 35.2355 122.098 34.9227C122.38 34.6039 122.599 34.2337 122.743 33.832C123.049 32.9777 123.049 32.0419 122.743 31.1876C122.598 30.7859 122.38 30.4157 122.098 30.0969C121.817 29.7842 121.477 29.5318 121.097 29.3547C120.69 29.1653 120.246 29.07 119.797 29.0756C119.353 29.0692 118.912 29.1646 118.509 29.3547C118.131 29.5348 117.792 29.7899 117.514 30.1048C117.235 30.4197 117.022 30.788 116.888 31.1876C116.596 32.0445 116.596 32.9751 116.888 33.832C117.022 34.2317 117.235 34.6 117.514 34.9149C117.792 35.2298 118.131 35.4849 118.509 35.6649C118.912 35.8545 119.353 35.9495 119.797 35.9425V35.944Z" fill="#333333"/>
<path d="M138.683 27.1024V37.9141H136.175V36.4523C135.824 37.0057 135.326 37.4481 134.737 37.7286C134.157 38.0281 133.515 38.1871 132.863 38.1932C132.096 38.2026 131.335 38.0483 130.631 37.7406C129.974 37.4539 129.383 37.0338 128.893 36.5066C128.409 35.9793 128.026 35.3654 127.765 34.6964C127.229 33.2966 127.229 31.7455 127.765 30.3458C128.023 29.668 128.406 29.0456 128.893 28.5114C129.381 27.9817 129.973 27.5591 130.63 27.2699C131.334 26.9621 132.094 26.8079 132.862 26.8173C133.514 26.8234 134.155 26.9824 134.736 27.2819C135.324 27.5627 135.823 28.005 136.173 28.5581V27.0964L138.683 27.1024ZM132.999 35.9424C133.448 35.9481 133.892 35.8528 134.299 35.6634C134.679 35.4864 135.019 35.234 135.3 34.9212C135.582 34.6024 135.8 34.2322 135.944 33.8305C136.251 32.9762 136.251 32.0404 135.944 31.186C135.8 30.7844 135.582 30.4142 135.3 30.0954C135.019 29.7827 134.679 29.5303 134.299 29.3532C133.892 29.1638 133.448 29.0685 132.999 29.0741C132.554 29.0676 132.114 29.1631 131.711 29.3532C131.333 29.5333 130.994 29.7884 130.716 30.1033C130.437 30.4182 130.224 30.7864 130.09 31.186C129.798 32.043 129.798 32.9735 130.09 33.8305C130.224 34.2302 130.437 34.5984 130.716 34.9133C130.994 35.2282 131.333 35.4833 131.711 35.6634C132.115 35.8537 132.555 35.9492 133.001 35.9424H132.999Z" fill="#333333"/>
<path d="M145.99 43.5531C145.317 43.5596 144.647 43.4656 144.001 43.274C143.425 43.1045 142.889 42.8203 142.424 42.4383C141.974 42.0591 141.612 41.5835 141.367 41.0459C141.093 40.4331 140.952 39.7688 140.952 39.0969H143.477C143.538 39.8853 143.81 40.4691 144.294 40.8483C144.784 41.2298 145.389 41.4305 146.008 41.417C146.364 41.4198 146.719 41.3809 147.066 41.3008C147.372 41.2316 147.656 41.0882 147.894 40.883C148.134 40.6672 148.319 40.3967 148.434 40.094C148.578 39.6924 148.644 39.267 148.63 38.8404V36.3559C148.305 36.9317 147.816 37.3961 147.227 37.6894C146.574 38.0034 145.857 38.1584 145.133 38.142C144.456 38.1641 143.783 38.0294 143.166 37.7482C142.664 37.5083 142.232 37.1408 141.913 36.6817C141.649 36.2722 141.466 35.8154 141.373 35.3361C141.263 34.724 141.213 34.1025 141.223 33.4806V27.0542H143.73V32.6464C143.728 33.082 143.766 33.5169 143.845 33.9452C143.908 34.3097 144.037 34.6595 144.225 34.977C144.401 35.2633 144.647 35.4992 144.939 35.6619C145.283 35.8427 145.667 35.9306 146.055 35.9169C146.929 35.9169 147.577 35.6036 147.999 34.977C148.421 34.3505 148.632 33.5731 148.632 32.6448V27.0557H151.139V38.8419C151.139 40.4199 150.694 41.6111 149.805 42.4157C148.93 43.2031 147.659 43.5968 145.99 43.5968V43.5531Z" fill="#333333"/>
<path d="M162.389 30.7923V37.9156H159.743V21.6731H162.389V28.8131L168.372 21.6671H171.685L164.875 29.7876L171.685 37.9081H168.372L162.389 30.7923Z" fill="#333333"/>
<path d="M172.496 23.1591C172.49 22.9114 172.536 22.6652 172.629 22.4358C172.721 22.2064 172.86 21.9987 173.036 21.8255C173.204 21.6501 173.406 21.5112 173.63 21.4175C173.853 21.3239 174.094 21.2774 174.336 21.281C174.581 21.2777 174.825 21.324 175.053 21.4172C175.281 21.5103 175.488 21.6484 175.662 21.8234C175.836 21.9983 175.974 22.2066 176.067 22.436C176.161 22.6653 176.208 22.9112 176.205 23.1591C176.209 23.4032 176.163 23.6455 176.07 23.8709C175.977 24.0964 175.839 24.3003 175.665 24.47C175.494 24.6472 175.288 24.787 175.06 24.8806C174.833 24.9743 174.589 25.0199 174.343 25.0146C173.856 25.013 173.389 24.817 173.044 24.4694C172.699 24.1217 172.505 23.6507 172.503 23.1591H172.496ZM173.094 27.1039H175.607V37.9156H173.1L173.094 27.1039Z" fill="#333333"/>
<path d="M186.209 36.4539C185.859 37.0073 185.36 37.4497 184.772 37.7301C184.191 38.0296 183.549 38.1887 182.897 38.1947C182.13 38.2041 181.37 38.0499 180.666 37.7422C180.008 37.455 179.417 37.0344 178.928 36.5067C178.443 35.9793 178.061 35.3654 177.8 34.6964C177.263 33.2967 177.263 31.7456 177.8 30.3458C178.058 29.668 178.44 29.0456 178.928 28.5114C179.416 27.9818 180.007 27.5591 180.664 27.2699C181.368 26.9622 182.129 26.808 182.896 26.8173C183.548 26.8234 184.19 26.9825 184.77 27.282C185.359 27.5627 185.857 28.005 186.208 28.5582V21.6732H188.715V37.9157H186.208L186.209 36.4539ZM183.034 35.944C183.482 35.9497 183.926 35.8543 184.333 35.6649C184.713 35.488 185.053 35.2355 185.334 34.9227C185.616 34.6039 185.835 34.2337 185.979 33.832C186.286 32.9777 186.286 32.0419 185.979 31.1876C185.835 30.7859 185.616 30.4157 185.334 30.0969C185.053 29.7842 184.713 29.5318 184.333 29.3547C183.926 29.1653 183.482 29.07 183.034 29.0756C182.589 29.0692 182.149 29.1646 181.746 29.3547C181.367 29.5348 181.029 29.7899 180.75 30.1048C180.472 30.4197 180.259 30.788 180.124 31.1876C179.833 32.0445 179.833 32.9751 180.124 33.832C180.258 34.2312 180.47 34.5991 180.747 34.914C181.025 35.2288 181.362 35.4842 181.74 35.6649C182.144 35.8554 182.587 35.9504 183.034 35.9425V35.944Z" fill="#333333"/>
<path d="M196.01 31.8136C196.378 31.9524 196.738 32.0992 197.091 32.2541C197.432 32.4013 197.749 32.5969 198.035 32.8348C198.309 33.0641 198.532 33.3488 198.69 33.6706C198.864 34.056 198.947 34.4768 198.932 34.9C198.944 35.4077 198.829 35.9102 198.599 36.3618C198.38 36.7757 198.064 37.1298 197.679 37.3937C197.262 37.6759 196.799 37.8803 196.31 37.9971C195.768 38.131 195.212 38.1973 194.654 38.1947C194.093 38.1979 193.534 38.1119 192.999 37.9397C192.492 37.778 192.02 37.5222 191.606 37.1855C191.199 36.8518 190.869 36.4321 190.64 35.956C190.394 35.4306 190.272 34.8549 190.284 34.274H192.722C192.722 34.986 192.917 35.4848 193.308 35.7705C193.744 36.0706 194.265 36.2213 194.792 36.2004C195.223 36.2142 195.651 36.1182 196.035 35.9213C196.372 35.7353 196.541 35.4104 196.541 34.9468C196.55 34.7265 196.477 34.5108 196.334 34.3434C196.157 34.1608 195.946 34.0148 195.714 33.9135C195.377 33.7581 195.031 33.6226 194.678 33.5077C194.265 33.3689 193.774 33.1909 193.207 32.9736C192.857 32.8426 192.516 32.6915 192.183 32.5211C191.886 32.3708 191.611 32.1794 191.367 31.9524C191.13 31.7267 190.949 31.4489 190.837 31.1408C190.706 30.761 190.643 30.3603 190.653 29.9581C190.643 29.489 190.754 29.0253 190.975 28.6124C191.191 28.2234 191.489 27.8867 191.848 27.6259C192.234 27.3471 192.667 27.1425 193.126 27.0224C193.632 26.8879 194.154 26.8215 194.678 26.8248C195.224 26.8212 195.765 26.9157 196.277 27.1039C196.754 27.2767 197.194 27.5365 197.577 27.8702C197.943 28.1933 198.241 28.5879 198.451 29.0303C198.667 29.4865 198.777 29.9865 198.772 30.4921H196.334C196.357 30.0496 196.214 29.6148 195.932 29.2747C195.664 28.973 195.223 28.8221 194.61 28.8221C194.223 28.8098 193.842 28.915 193.516 29.1238C193.371 29.2182 193.254 29.3493 193.175 29.5039C193.096 29.6585 193.059 29.8312 193.067 30.0048C193.058 30.2106 193.124 30.4127 193.251 30.5735C193.405 30.7432 193.593 30.8775 193.803 30.9673C194.049 31.0829 194.355 31.2066 194.723 31.3384C195.091 31.4701 195.52 31.6285 196.01 31.8136Z" fill="#333333"/>
<path d="M41.0897 21.2402C43.7184 21.2402 45.8494 19.0911 45.8494 16.4401C45.8494 13.789 43.7184 11.6399 41.0897 11.6399C38.461 11.6399 36.3301 13.789 36.3301 16.4401C36.3301 19.0911 38.461 21.2402 41.0897 21.2402Z" fill="#333333"/>
<path d="M21.4153 32.9782C18.6711 32.9782 16.0392 31.8788 14.0987 29.9217C12.1583 27.9647 11.0681 25.3105 11.0681 22.5429C11.0681 19.7752 12.1583 17.121 14.0987 15.164C16.0392 13.207 18.6711 12.1075 21.4153 12.1075V32.9782Z" fill="#333333"/>
<path d="M23.5828 44.3585C26.327 44.3585 28.9589 43.2591 30.8993 41.3021C32.8398 39.3451 33.93 36.6908 33.93 33.9232C33.93 31.1556 32.8398 28.5013 30.8993 26.5443C28.9589 24.5873 26.327 23.4879 23.5828 23.4879V44.3585Z" fill="#333333"/>
<path d="M28.7568 20.3034C31.1286 20.3034 33.0513 18.3643 33.0513 15.9724C33.0513 13.5804 31.1286 11.6414 28.7568 11.6414C26.3851 11.6414 24.4624 13.5804 24.4624 15.9724C24.4624 18.3643 26.3851 20.3034 28.7568 20.3034Z" fill="#333333"/>
<path d="M15.827 44.3601C18.4557 44.3601 20.5867 42.211 20.5867 39.5599C20.5867 36.9089 18.4557 34.7598 15.827 34.7598C13.1983 34.7598 11.0674 36.9089 11.0674 39.5599C11.0674 42.211 13.1983 44.3601 15.827 44.3601Z" fill="#333333"/>
<path d="M37.7061 25.6285V44.3585H56.2794L37.7061 25.6285Z" fill="#333333"/>
</g>
<defs>
<clipPath id="clip0">
<rect width="210" height="56" fill="white"/>
</clipPath>
</defs>
</svg>
