<svg width="28" height="28" viewBox="0 0 28 28" fill="none" xmlns="http://www.w3.org/2000/svg">
<path d="M25.125 20.8749H22.9281C22.7781 20.8749 22.6375 20.9405 22.5437 21.0562C22.325 21.3218 22.0906 21.5781 21.8437 21.8218C20.834 22.8325 19.638 23.638 18.3218 24.1937C16.9583 24.7696 15.4927 25.0651 14.0125 25.0624C12.5156 25.0624 11.0656 24.7687 9.70309 24.1937C8.38693 23.638 7.19092 22.8325 6.18121 21.8218C5.1697 20.8145 4.36314 19.6206 3.80621 18.3062C3.22809 16.9437 2.93746 15.4968 2.93746 13.9999C2.93746 12.5031 3.23121 11.0562 3.80621 9.69368C4.36246 8.37805 5.16246 7.19368 6.18121 6.17805C7.19996 5.16243 8.38434 4.36243 9.70309 3.80618C11.0656 3.23118 12.5156 2.93743 14.0125 2.93743C15.5093 2.93743 16.9593 3.22805 18.3218 3.80618C19.6406 4.36243 20.825 5.16243 21.8437 6.17805C22.0906 6.42493 22.3218 6.68118 22.5437 6.94368C22.6375 7.0593 22.7812 7.12493 22.9281 7.12493H25.125C25.3218 7.12493 25.4437 6.90618 25.3343 6.74055C22.9375 3.01555 18.7437 0.549925 13.9781 0.562425C6.49059 0.581175 0.487463 6.6593 0.562463 14.1374C0.637463 21.4968 6.63121 27.4374 14.0125 27.4374C18.7656 27.4374 22.9406 24.9749 25.3343 21.2593C25.4406 21.0937 25.3218 20.8749 25.125 20.8749ZM27.9031 13.8031L23.4687 10.3031C23.3031 10.1718 23.0625 10.2906 23.0625 10.4999V12.8749H13.25C13.1125 12.8749 13 12.9874 13 13.1249V14.8749C13 15.0124 13.1125 15.1249 13.25 15.1249H23.0625V17.4999C23.0625 17.7093 23.3062 17.8281 23.4687 17.6968L27.9031 14.1968C27.933 14.1734 27.9571 14.1435 27.9738 14.1094C27.9904 14.0753 27.999 14.0379 27.999 13.9999C27.999 13.962 27.9904 13.9245 27.9738 13.8904C27.9571 13.8563 27.933 13.8264 27.9031 13.8031Z" fill="#242D34" fill-opacity="0.5"/>
</svg>
