<svg width="91" height="24" viewBox="0 0 91 24" fill="none" xmlns="http://www.w3.org/2000/svg">
<path d="M35.7188 5.625L39 14.3438L42.2734 5.625H44.8281V17H42.8594V13.25L43.0547 8.23438L39.6953 17H38.2812L34.9297 8.24219L35.125 13.25V17H33.1562V5.625H35.7188ZM50.7109 17.1562C49.5078 17.1562 48.5312 16.7786 47.7812 16.0234C47.0365 15.263 46.6641 14.2526 46.6641 12.9922V12.7578C46.6641 11.9141 46.8255 11.1615 47.1484 10.5C47.4766 9.83333 47.9349 9.3151 48.5234 8.94531C49.112 8.57552 49.7682 8.39062 50.4922 8.39062C51.6432 8.39062 52.5312 8.75781 53.1562 9.49219C53.7865 10.2266 54.1016 11.2656 54.1016 12.6094V13.375H48.5781C48.6354 14.0729 48.8672 14.625 49.2734 15.0312C49.6849 15.4375 50.2005 15.6406 50.8203 15.6406C51.6901 15.6406 52.3984 15.2891 52.9453 14.5859L53.9688 15.5625C53.6302 16.0677 53.1771 16.4609 52.6094 16.7422C52.0469 17.0182 51.4141 17.1562 50.7109 17.1562ZM50.4844 9.91406C49.9635 9.91406 49.5417 10.0964 49.2188 10.4609C48.901 10.8255 48.6979 11.3333 48.6094 11.9844H52.2266V11.8438C52.1849 11.2083 52.0156 10.7292 51.7188 10.4062C51.4219 10.0781 51.0104 9.91406 50.4844 9.91406ZM55.2266 12.7109C55.2266 11.4089 55.5286 10.3646 56.1328 9.57812C56.737 8.78646 57.5469 8.39062 58.5625 8.39062C59.4583 8.39062 60.1823 8.70312 60.7344 9.32812V5H62.6328V17H60.9141L60.8203 16.125C60.2526 16.8125 59.4948 17.1562 58.5469 17.1562C57.5573 17.1562 56.7552 16.7578 56.1406 15.9609C55.5312 15.1641 55.2266 14.0807 55.2266 12.7109ZM57.125 12.875C57.125 13.7344 57.2891 14.4062 57.6172 14.8906C57.9505 15.3698 58.4219 15.6094 59.0312 15.6094C59.8073 15.6094 60.375 15.263 60.7344 14.5703V10.9609C60.3854 10.2839 59.8229 9.94531 59.0469 9.94531C58.4323 9.94531 57.9583 10.1901 57.625 10.6797C57.2917 11.1641 57.125 11.8958 57.125 12.875ZM66.6328 17H64.7344V8.54688H66.6328V17ZM64.6172 6.35156C64.6172 6.0599 64.7083 5.81771 64.8906 5.625C65.0781 5.43229 65.3438 5.33594 65.6875 5.33594C66.0312 5.33594 66.2969 5.43229 66.4844 5.625C66.6719 5.81771 66.7656 6.0599 66.7656 6.35156C66.7656 6.63802 66.6719 6.8776 66.4844 7.07031C66.2969 7.25781 66.0312 7.35156 65.6875 7.35156C65.3438 7.35156 65.0781 7.25781 64.8906 7.07031C64.7083 6.8776 64.6172 6.63802 64.6172 6.35156ZM73.8281 16.1719C73.2708 16.8281 72.4792 17.1562 71.4531 17.1562C70.5365 17.1562 69.8411 16.888 69.3672 16.3516C68.8984 15.8151 68.6641 15.0391 68.6641 14.0234V8.54688H70.5625V14C70.5625 15.0729 71.0078 15.6094 71.8984 15.6094C72.8203 15.6094 73.4427 15.2786 73.7656 14.6172V8.54688H75.6641V17H73.875L73.8281 16.1719ZM79.3828 8.54688L79.4375 9.42969C80.0312 8.73698 80.8438 8.39062 81.875 8.39062C83.0052 8.39062 83.7786 8.82292 84.1953 9.6875C84.8099 8.82292 85.6745 8.39062 86.7891 8.39062C87.7214 8.39062 88.4141 8.64844 88.8672 9.16406C89.3255 9.67969 89.5599 10.4401 89.5703 11.4453V17H87.6719V11.5C87.6719 10.9635 87.5547 10.5703 87.3203 10.3203C87.0859 10.0703 86.6979 9.94531 86.1562 9.94531C85.724 9.94531 85.3698 10.0625 85.0938 10.2969C84.8229 10.526 84.6328 10.8281 84.5234 11.2031L84.5312 17H82.6328V11.4375C82.6068 10.4427 82.099 9.94531 81.1094 9.94531C80.349 9.94531 79.8099 10.2552 79.4922 10.875V17H77.5938V8.54688H79.3828Z" fill="#212428" fill-opacity="0.5"/>
<path d="M23.9296 9.1257V6.65028C23.9296 5.73929 23.1903 5 22.2793 5H1.65028C0.738554 4.99991 0 5.73929 0 6.65028V18.2025C0 19.1143 0.739385 19.8528 1.65028 19.8528H22.2792C23.1902 19.8528 23.9295 19.1142 23.9295 18.2025V15.727L23.9296 9.1257ZM21.4541 16.5521C21.4541 17.0084 21.0852 17.3773 20.6289 17.3773H3.30065C2.8452 17.3773 2.47551 17.0084 2.47551 16.5521V8.30056C2.47551 7.84511 2.8452 7.47542 3.30065 7.47542H20.6289C21.0852 7.47542 21.4541 7.84511 21.4541 8.30056V16.5521Z" fill="#CCD0D2"/>
<path fill-rule="evenodd" clip-rule="evenodd" d="M13.1749 9C12.7186 9 10.8251 9 10.8251 9C10.3697 9 10 9.36969 10 9.82514V14.7761C10 15.2323 10.3697 15.6012 10.8251 15.6012C10.8251 15.6012 12.7186 15.6012 13.1749 15.6012C13.6311 15.6012 14 15.2323 14 14.7761C14 14.3198 14 10.2798 14 9.82514C14 9.37052 13.6311 9 13.1749 9Z" fill="#CCD0D2"/>
<path fill-rule="evenodd" clip-rule="evenodd" d="M7.17486 9C6.71858 9 4.82514 9 4.82514 9C4.36969 9 4 9.36969 4 9.82514V14.7761C4 15.2323 4.36969 15.6012 4.82514 15.6012C4.82514 15.6012 6.71858 15.6012 7.17486 15.6012C7.63114 15.6012 8 15.2323 8 14.7761C8 14.3198 8 10.2798 8 9.82514C8 9.37052 7.63114 9 7.17486 9Z" fill="#CCD0D2"/>
</svg>
