<svg width="20" height="20" viewBox="0 0 20 20" fill="none" xmlns="http://www.w3.org/2000/svg">
<path d="M18.625 0.625H1.375C0.960156 0.625 0.625 0.960156 0.625 1.375V18.625C0.625 19.0398 0.960156 19.375 1.375 19.375H18.625C19.0398 19.375 19.375 19.0398 19.375 18.625V1.375C19.375 0.960156 19.0398 0.625 18.625 0.625ZM14.3008 6.57109L9.36484 13.4148C9.29586 13.5111 9.20491 13.5896 9.09955 13.6437C8.99418 13.6978 8.87744 13.7261 8.75898 13.7261C8.64053 13.7261 8.52378 13.6978 8.41842 13.6437C8.31306 13.5896 8.22211 13.5111 8.15313 13.4148L5.23047 9.36484C5.14141 9.24062 5.23047 9.06719 5.38281 9.06719H6.48203C6.72109 9.06719 6.94844 9.18203 7.08906 9.37891L8.75781 11.6945L12.4422 6.58516C12.5828 6.39062 12.8078 6.27344 13.0492 6.27344H14.1484C14.3008 6.27344 14.3898 6.44688 14.3008 6.57109Z" fill="#7AEA8C"/>
</svg>
