<svg width="32" height="32" viewBox="0 0 32 32" fill="none" xmlns="http://www.w3.org/2000/svg">
<path d="M27.9374 14.4374C28.9031 14.4374 29.3062 13.1968 28.5218 12.6249L16.5874 3.94365C16.417 3.81878 16.2112 3.75146 15.9999 3.75146C15.7887 3.75146 15.5829 3.81878 15.4124 3.94365L3.47807 12.6249C2.69369 13.1937 3.09682 14.4374 4.06557 14.4374H5.99994V26.1249H3.74994C3.61244 26.1249 3.49994 26.2374 3.49994 26.3749V27.9999C3.49994 28.1374 3.61244 28.2499 3.74994 28.2499H28.2499C28.3874 28.2499 28.4999 28.1374 28.4999 27.9999V26.3749C28.4999 26.2374 28.3874 26.1249 28.2499 26.1249H25.9999V14.4374H27.9374ZM15.9999 6.14678L24.4718 12.3093H7.52807L15.9999 6.14678ZM8.24994 14.4374H11.9062V26.1249H8.24994V14.4374ZM14.1562 14.4374H17.8124V26.1249H14.1562V14.4374ZM23.7499 26.1249H20.0624V14.4374H23.7499V26.1249Z" fill="#242D34" fill-opacity="0.5"/>
</svg>
