<svg width="16" height="16" viewBox="0 0 16 16" fill="none" xmlns="http://www.w3.org/2000/svg">
<mask id="mask0" mask-type="alpha" maskUnits="userSpaceOnUse" x="0" y="0" width="16" height="16">
<path d="M16 0H0V16H16V0Z" fill="white"/>
</mask>
<g mask="url(#mask0)">
<path d="M7.36869 8.51148V13.3457C8.81346 13.1762 9.87241 12.2405 9.87241 10.9021C9.87241 9.56053 9.318 8.90827 7.36869 8.51148ZM6.00981 13.3156V8.26902C3.68655 7.79876 2.33026 6.9257 2.33026 4.78779C2.33026 2.79241 4.06935 1.23639 6.54069 1.23639C8.31209 1.23639 9.61231 1.80677 10.358 2.89197L9.4622 4.10193C9.10008 3.19712 8.41898 2.72239 7.36869 2.57175V7.05074C7.51889 7.07706 7.66506 7.10492 7.80716 7.13449L12.2263 1.38894H13.7414L9.00638 7.462C10.5874 8.02635 11.4101 8.99791 11.4101 10.7922C11.4101 10.9103 11.4046 11.0269 11.3937 11.1418L13.9913 14.4962H12.3513L10.9005 12.636C10.1633 13.8563 8.68821 14.6548 6.8885 14.6548C3.39202 14.6548 2.1289 12.7327 1.89091 10.4993H3.42863C3.60525 11.864 4.11982 13.0457 6.00981 13.3156V13.3156ZM6.00981 6.81446V2.54517C4.54972 2.70251 3.81306 3.52459 3.81306 4.64134C3.81306 5.73686 4.17109 6.4055 6.00981 6.81446Z" fill="white"/>
</g>
</svg>
