<?xml version="1.0" encoding="UTF-8"?>
<svg width="20px" height="20px" viewBox="0 0 20 20" version="1.1" xmlns="http://www.w3.org/2000/svg" xmlns:xlink="http://www.w3.org/1999/xlink">
    <!-- Generator: Sketch 52.4 (67378) - http://www.bohemiancoding.com/sketch -->
    <title>SK Coin (1)</title>
    <desc>Created with Sketch.</desc>
    <defs>
        <polygon id="path-1" points="20 0 0 0 0 20 20 20"></polygon>
    </defs>
    <g id="Page-2" stroke="none" stroke-width="1" fill="none" fill-rule="evenodd">
        <g id="SK-Coin-(1)">
            <mask id="mask-2" fill="white">
                <use xlink:href="#path-1"></use>
            </mask>
            <g id="Path"></g>
            <path d="M9.21074,10.6393 L9.21074,16.6821 C11.0167,16.4702 12.3404,15.3006 12.3404,13.6276 C12.3404,11.9506 11.6474,11.1353 9.21074,10.6393 Z M7.51214,16.6445 L7.51214,10.3363 C4.60807,9.74843 2.91271,8.65711 2.91271,5.98472 C2.91271,3.4905 5.08657,1.54547 8.17574,1.54547 C10.39,1.54547 12.0153,2.25844 12.9474,3.61495 L11.8276,5.1274 C11.375,3.99638 10.5236,3.40297 9.21074,3.21467 L9.21074,8.8134 C9.39849,8.84631 9.5812,8.88114 9.75883,8.9181 L15.2828,1.73616 L17.1766,1.73616 L11.2579,9.32748 C13.2341,10.0329 14.2625,11.2474 14.2625,13.4903 C14.2625,13.6379 14.2556,13.7836 14.2419,13.9272 L17.489,18.1202 L15.439,18.1202 L13.6256,15.795 C12.704,17.3204 10.8601,18.3185 8.61051,18.3185 C4.23991,18.3185 2.661,15.9158 2.36353,13.1241 L4.28567,13.1241 C4.50644,14.83 5.14966,16.3071 7.51214,16.6445 Z M7.51214,8.51806 L7.51214,3.18144 C5.68703,3.37812 4.76621,4.40573 4.76621,5.80166 C4.76621,7.17106 5.21375,8.00686 7.51214,8.51806 Z" id="Shape" fill="#333333" fill-rule="nonzero" mask="url(#mask-2)"></path>
        </g>
    </g>
</svg>