<svg width="40" height="40" viewBox="0 0 40 40" fill="none" xmlns="http://www.w3.org/2000/svg">
<mask id="mask0" mask-type="alpha" maskUnits="userSpaceOnUse" x="0" y="0" width="40" height="40">
<path d="M40 0H0V40H40V0Z" fill="white"/>
</mask>
<g mask="url(#mask0)">
<path d="M18.4217 21.2786V33.3642C22.0337 32.9404 24.681 30.6011 24.681 27.255C24.681 23.9012 23.295 22.2706 18.4217 21.2786ZM15.0245 33.289V20.6725C9.21638 19.4968 5.82567 17.3142 5.82567 11.9694C5.82567 6.98094 10.1734 3.09088 16.3517 3.09088C20.7802 3.09088 24.0308 4.51682 25.8951 7.22984L23.6555 10.2547C22.7502 7.9927 21.0475 6.80587 18.4217 6.42928V17.6267C18.7972 17.6926 19.1626 17.7622 19.5179 17.8361L30.5658 3.47226H34.3535L22.516 18.6549C26.4685 20.0658 28.5253 22.4947 28.5253 26.9804C28.5253 27.2757 28.5114 27.5671 28.4841 27.8543L34.9783 36.2403H30.8782L27.2514 31.5899C25.4081 34.6407 21.7205 36.637 17.2213 36.637C8.48006 36.637 5.32225 31.8316 4.72729 26.2482H8.57159C9.01312 29.66 10.2996 32.6142 15.0245 33.289V33.289ZM15.0245 17.0361V6.36283C11.3743 6.75618 9.53267 8.81139 9.53267 11.6033C9.53267 14.3421 10.4277 16.0137 15.0245 17.0361Z" fill="#1746DD" fill-opacity="0.4"/>
</g>
</svg>
