<svg width="32" height="32" viewBox="0 0 32 32" fill="none" xmlns="http://www.w3.org/2000/svg">
<path d="M25.7562 21.8719C24.974 21.0891 24.0601 20.4501 23.0562 19.9844C24.4718 18.8375 25.375 17.0875 25.375 15.125C25.375 11.6625 22.4875 8.82188 19.025 8.875C15.6156 8.92813 12.8687 11.7063 12.8687 15.125C12.8687 17.0875 13.775 18.8375 15.1875 19.9844C14.1834 20.4498 13.2694 21.0888 12.4875 21.8719C10.7812 23.5813 9.81246 25.8375 9.74996 28.2437C9.74912 28.2771 9.75497 28.3103 9.76716 28.3413C9.77935 28.3724 9.79764 28.4007 9.82093 28.4246C9.84423 28.4485 9.87207 28.4674 9.90282 28.4804C9.93357 28.4933 9.96659 28.5 9.99996 28.5H11.75C11.8843 28.5 11.9968 28.3937 12 28.2594C12.0593 26.4469 12.7937 24.75 14.0843 23.4625C14.7448 22.7986 15.5303 22.2722 16.3956 21.9139C17.2608 21.5555 18.1885 21.3724 19.125 21.375C21.0281 21.375 22.8187 22.1156 24.1656 23.4625C25.4531 24.75 26.1875 26.4469 26.25 28.2594C26.2531 28.3937 26.3656 28.5 26.5 28.5H28.25C28.2833 28.5 28.3164 28.4933 28.3471 28.4804C28.3778 28.4674 28.4057 28.4485 28.429 28.4246C28.4523 28.4007 28.4706 28.3724 28.4828 28.3413C28.4949 28.3103 28.5008 28.2771 28.5 28.2437C28.4375 25.8375 27.4687 23.5813 25.7562 21.8719ZM19.125 19.125C18.0562 19.125 17.05 18.7094 16.2968 17.9531C15.9189 17.5781 15.6203 17.1309 15.419 16.638C15.2176 16.1451 15.1176 15.6167 15.125 15.0844C15.1343 14.0594 15.5437 13.0688 16.2593 12.3344C17.0093 11.5656 18.0125 11.1375 19.0843 11.125C20.1437 11.1156 21.1718 11.5281 21.9281 12.2688C22.7031 13.0281 23.1281 14.0438 23.1281 15.125C23.1281 16.1938 22.7125 17.1969 21.9562 17.9531C21.5852 18.3259 21.1439 18.6214 20.6579 18.8226C20.172 19.0237 19.6509 19.1265 19.125 19.125ZM11.2968 15.95C11.2687 15.6781 11.2531 15.4031 11.2531 15.125C11.2531 14.6281 11.3 14.1438 11.3875 13.6719C11.4093 13.5594 11.35 13.4438 11.2468 13.3969C10.8218 13.2063 10.4312 12.9438 10.0937 12.6125C9.69602 12.2269 9.38308 11.7626 9.17485 11.2493C8.96662 10.736 8.86768 10.1849 8.88433 9.63125C8.91246 8.62813 9.31558 7.675 10.0187 6.95625C10.7906 6.16563 11.8281 5.73438 12.9312 5.74688C13.9281 5.75625 14.8906 6.14063 15.6187 6.82188C15.8656 7.05313 16.0781 7.30938 16.2562 7.58438C16.3187 7.68125 16.4406 7.72188 16.5468 7.68438C17.0968 7.49375 17.6781 7.35938 18.275 7.29688C18.45 7.27813 18.55 7.09063 18.4718 6.93438C17.4562 4.925 15.3812 3.5375 12.9812 3.5C9.51558 3.44688 6.62808 6.2875 6.62808 9.74688C6.62808 11.7094 7.53121 13.4594 8.94683 14.6063C7.95308 15.0656 7.03746 15.7 6.24371 16.4938C4.53121 18.2031 3.56246 20.4594 3.49996 22.8687C3.49912 22.9021 3.50497 22.9353 3.51716 22.9663C3.52935 22.9974 3.54763 23.0257 3.57093 23.0496C3.59423 23.0735 3.62207 23.0924 3.65282 23.1054C3.68357 23.1183 3.71659 23.125 3.74996 23.125H5.50308C5.63746 23.125 5.74996 23.0187 5.75308 22.8844C5.81246 21.0719 6.54683 19.375 7.83746 18.0875C8.75621 17.1688 9.88121 16.5312 11.1093 16.2219C11.2312 16.1906 11.3125 16.075 11.2968 15.95Z" fill="#242D34" fill-opacity="0.5"/>
</svg>
