<svg width="32" height="32" viewBox="0 0 32 32" fill="none" xmlns="http://www.w3.org/2000/svg">
<path d="M26.8281 23.8625C26.2386 22.4662 25.3831 21.1978 24.3093 20.1281C23.2388 19.0553 21.9707 18.2 20.5749 17.6094C20.5624 17.6031 20.5499 17.6 20.5374 17.5938C22.4843 16.1875 23.7499 13.8969 23.7499 11.3125C23.7499 7.03125 20.2812 3.5625 15.9999 3.5625C11.7187 3.5625 8.24994 7.03125 8.24994 11.3125C8.24994 13.8969 9.51557 16.1875 11.4624 17.5969C11.4499 17.6031 11.4374 17.6062 11.4249 17.6125C10.0249 18.2031 8.76869 19.05 7.69057 20.1313C6.61778 21.2018 5.76245 22.4699 5.17182 23.8656C4.59157 25.232 4.27863 26.697 4.24994 28.1812C4.24911 28.2146 4.25496 28.2478 4.26715 28.2788C4.27934 28.3099 4.29762 28.3382 4.32092 28.3621C4.34422 28.386 4.37206 28.4049 4.4028 28.4179C4.43355 28.4308 4.46658 28.4375 4.49994 28.4375H6.37494C6.51244 28.4375 6.62182 28.3281 6.62494 28.1938C6.68744 25.7812 7.65619 23.5219 9.36869 21.8094C11.1406 20.0375 13.4937 19.0625 15.9999 19.0625C18.5062 19.0625 20.8593 20.0375 22.6312 21.8094C24.3437 23.5219 25.3124 25.7812 25.3749 28.1938C25.3781 28.3313 25.4874 28.4375 25.6249 28.4375H27.4999C27.5333 28.4375 27.5663 28.4308 27.5971 28.4179C27.6278 28.4049 27.6557 28.386 27.679 28.3621C27.7023 28.3382 27.7205 28.3099 27.7327 28.2788C27.7449 28.2478 27.7508 28.2146 27.7499 28.1812C27.7187 26.6875 27.4093 25.2344 26.8281 23.8625ZM15.9999 16.6875C14.5656 16.6875 13.2156 16.1281 12.1999 15.1125C11.1843 14.0969 10.6249 12.7469 10.6249 11.3125C10.6249 9.87813 11.1843 8.52812 12.1999 7.5125C13.2156 6.49687 14.5656 5.9375 15.9999 5.9375C17.4343 5.9375 18.7843 6.49687 19.7999 7.5125C20.8156 8.52812 21.3749 9.87813 21.3749 11.3125C21.3749 12.7469 20.8156 14.0969 19.7999 15.1125C18.7843 16.1281 17.4343 16.6875 15.9999 16.6875Z" fill="#1746DD"/>
</svg>
